<mxfile host="app.diagrams.net" agent="Mozilla/5.0 (Macintosh; Intel Mac OS X 10.15; rv:135.0) Gecko/20100101 Firefox/135.0" version="26.0.16">
  <diagram name="Page-1" id="c7488fd3-1785-93aa-aadb-54a6760d102a">
    <mxGraphModel dx="1043" dy="594" grid="1" gridSize="10" guides="1" tooltips="1" connect="1" arrows="1" fold="1" page="1" pageScale="1" pageWidth="1100" pageHeight="850" background="none" math="0" shadow="0">
      <root>
        <mxCell id="0" />
        <mxCell id="1" parent="0" />
        <mxCell id="_OCMo7la0cQX6_djhq62-3" value="Hout" style="shape=parallelogram;perimeter=parallelogramPerimeter;whiteSpace=wrap;html=1;fixedSize=1;" parent="1" vertex="1">
          <mxGeometry x="120" y="432.5" width="120" height="60" as="geometry" />
        </mxCell>
        <mxCell id="_OCMo7la0cQX6_djhq62-6" value="Verbanding voor energie in kolencentrale" style="whiteSpace=wrap;html=1;aspect=fixed;" parent="1" vertex="1">
          <mxGeometry x="340" y="395" width="135" height="135" as="geometry" />
        </mxCell>
        <mxCell id="_OCMo7la0cQX6_djhq62-7" value="" style="endArrow=classic;html=1;rounded=0;" parent="1" source="_OCMo7la0cQX6_djhq62-3" target="_OCMo7la0cQX6_djhq62-6" edge="1">
          <mxGeometry width="50" height="50" relative="1" as="geometry">
            <mxPoint x="510" y="740" as="sourcePoint" />
            <mxPoint x="560" y="690" as="targetPoint" />
          </mxGeometry>
        </mxCell>
        <mxCell id="_OCMo7la0cQX6_djhq62-8" value="Overschot aan energie?" style="rhombus;whiteSpace=wrap;html=1;" parent="1" vertex="1">
          <mxGeometry x="316.25" y="580" width="182.5" height="150" as="geometry" />
        </mxCell>
        <mxCell id="_OCMo7la0cQX6_djhq62-9" value="Energie opslaan" style="whiteSpace=wrap;html=1;aspect=fixed;" parent="1" vertex="1">
          <mxGeometry x="110" y="595" width="120" height="120" as="geometry" />
        </mxCell>
        <mxCell id="_OCMo7la0cQX6_djhq62-10" value="" style="endArrow=classic;html=1;rounded=0;exitX=0.567;exitY=1.008;exitDx=0;exitDy=0;exitPerimeter=0;" parent="1" source="_OCMo7la0cQX6_djhq62-9" edge="1">
          <mxGeometry width="50" height="50" relative="1" as="geometry">
            <mxPoint x="510" y="810" as="sourcePoint" />
            <mxPoint x="178" y="760" as="targetPoint" />
          </mxGeometry>
        </mxCell>
        <mxCell id="_OCMo7la0cQX6_djhq62-11" value="" style="endArrow=classic;html=1;rounded=0;exitX=0.5;exitY=1;exitDx=0;exitDy=0;" parent="1" source="_OCMo7la0cQX6_djhq62-6" target="_OCMo7la0cQX6_djhq62-8" edge="1">
          <mxGeometry width="50" height="50" relative="1" as="geometry">
            <mxPoint x="510" y="680" as="sourcePoint" />
            <mxPoint x="560" y="630" as="targetPoint" />
          </mxGeometry>
        </mxCell>
        <mxCell id="_OCMo7la0cQX6_djhq62-12" value="Opgeslagen energie" style="shape=parallelogram;perimeter=parallelogramPerimeter;whiteSpace=wrap;html=1;fixedSize=1;" parent="1" vertex="1">
          <mxGeometry x="100" y="760" width="170" height="60" as="geometry" />
        </mxCell>
        <mxCell id="_OCMo7la0cQX6_djhq62-13" value="" style="endArrow=classic;html=1;rounded=0;entryX=1;entryY=0.5;entryDx=0;entryDy=0;" parent="1" source="_OCMo7la0cQX6_djhq62-8" target="_OCMo7la0cQX6_djhq62-9" edge="1">
          <mxGeometry width="50" height="50" relative="1" as="geometry">
            <mxPoint x="510" y="680" as="sourcePoint" />
            <mxPoint x="560" y="630" as="targetPoint" />
          </mxGeometry>
        </mxCell>
        <mxCell id="_OCMo7la0cQX6_djhq62-14" value="Ja" style="edgeLabel;html=1;align=center;verticalAlign=middle;resizable=0;points=[];" parent="_OCMo7la0cQX6_djhq62-13" vertex="1" connectable="0">
          <mxGeometry x="-0.3217" relative="1" as="geometry">
            <mxPoint as="offset" />
          </mxGeometry>
        </mxCell>
        <mxCell id="UEUn9ftiOp9GzTKLOCzN-1" value="Naar woonwijk verplaatsen" style="whiteSpace=wrap;html=1;aspect=fixed;" vertex="1" parent="1">
          <mxGeometry x="590" y="610" width="100" height="100" as="geometry" />
        </mxCell>
        <mxCell id="UEUn9ftiOp9GzTKLOCzN-2" value="" style="endArrow=classic;html=1;rounded=0;exitX=0.963;exitY=0.527;exitDx=0;exitDy=0;exitPerimeter=0;entryX=0;entryY=0.5;entryDx=0;entryDy=0;" edge="1" parent="1" source="_OCMo7la0cQX6_djhq62-8" target="UEUn9ftiOp9GzTKLOCzN-1">
          <mxGeometry width="50" height="50" relative="1" as="geometry">
            <mxPoint x="510" y="680" as="sourcePoint" />
            <mxPoint x="560" y="630" as="targetPoint" />
          </mxGeometry>
        </mxCell>
        <mxCell id="UEUn9ftiOp9GzTKLOCzN-5" value="nee" style="edgeLabel;html=1;align=center;verticalAlign=middle;resizable=0;points=[];" vertex="1" connectable="0" parent="UEUn9ftiOp9GzTKLOCzN-2">
          <mxGeometry x="-0.4894" y="-2" relative="1" as="geometry">
            <mxPoint as="offset" />
          </mxGeometry>
        </mxCell>
        <mxCell id="UEUn9ftiOp9GzTKLOCzN-3" value="warm huis" style="shape=parallelogram;perimeter=parallelogramPerimeter;whiteSpace=wrap;html=1;fixedSize=1;" vertex="1" parent="1">
          <mxGeometry x="590" y="480" width="120" height="60" as="geometry" />
        </mxCell>
        <mxCell id="UEUn9ftiOp9GzTKLOCzN-4" value="" style="endArrow=classic;html=1;rounded=0;" edge="1" parent="1" source="UEUn9ftiOp9GzTKLOCzN-1" target="UEUn9ftiOp9GzTKLOCzN-3">
          <mxGeometry width="50" height="50" relative="1" as="geometry">
            <mxPoint x="510" y="680" as="sourcePoint" />
            <mxPoint x="560" y="630" as="targetPoint" />
          </mxGeometry>
        </mxCell>
        <mxCell id="UEUn9ftiOp9GzTKLOCzN-6" value="Text" style="text;html=1;align=center;verticalAlign=middle;whiteSpace=wrap;rounded=0;" vertex="1" parent="1">
          <mxGeometry x="1974" y="600" width="60" height="50" as="geometry" />
        </mxCell>
        <mxCell id="UEUn9ftiOp9GzTKLOCzN-7" value="Vraag 1: schrijf voor de onderstaande diagram een lopend verhaal " style="text;html=1;align=center;verticalAlign=middle;whiteSpace=wrap;rounded=0;" vertex="1" parent="1">
          <mxGeometry x="110" y="290" width="190" height="50" as="geometry" />
        </mxCell>
        <mxCell id="UEUn9ftiOp9GzTKLOCzN-8" value="Vraag 2: maak zelf een diagram voor het onderstaand verhaal" style="text;html=1;align=center;verticalAlign=middle;whiteSpace=wrap;rounded=0;" vertex="1" parent="1">
          <mxGeometry x="410" y="290" width="280" height="30" as="geometry" />
        </mxCell>
        <mxCell id="UEUn9ftiOp9GzTKLOCzN-9" value="&lt;div&gt;&lt;br&gt;&lt;/div&gt;&lt;div&gt;De bakker krijgt meel en bakt daarmee bruin brood en wit brood. Als het brood mislukt dan wordt het weggegooid en anders wordt het verkocht.&lt;/div&gt;&lt;div&gt;&lt;br&gt;&lt;/div&gt;&lt;div&gt;Mensen kopen brood als ze daarvoor genoeg geld hebben maar anders niet.&lt;/div&gt;" style="text;html=1;align=center;verticalAlign=middle;whiteSpace=wrap;rounded=0;" vertex="1" parent="1">
          <mxGeometry x="430" y="307.5" width="350" height="102.5" as="geometry" />
        </mxCell>
        <mxCell id="UEUn9ftiOp9GzTKLOCzN-11" value="&lt;div&gt;Vraag 3: geef aan wat voor de onderstaande tekst de invoer is, de beslissing is, het proces is en wat de uitvoer is.&lt;/div&gt;&lt;div&gt;&lt;br&gt;&lt;/div&gt;&lt;div&gt;Een man krijgt 5 euro. Daarmee koopt hij appels. Als de appels er rot uit zien eet hij ze niet op. Als ze er lekker uit zien eet hij ze wel op.&lt;/div&gt;&lt;div&gt;&lt;br&gt;&lt;/div&gt;" style="text;html=1;align=center;verticalAlign=middle;whiteSpace=wrap;rounded=0;" vertex="1" parent="1">
          <mxGeometry x="700" y="450" width="210" height="250" as="geometry" />
        </mxCell>
      </root>
    </mxGraphModel>
  </diagram>
</mxfile>
